<?xml version="1.0" encoding="UTF-8"?>
<svg width="32" height="32" viewBox="0 0 32 32" fill="none" xmlns="http://www.w3.org/2000/svg">
  <rect width="32" height="32" rx="6" fill="#2563EB"/>
  <path d="M24 19.5C24 21.9853 21.9853 24 19.5 24H12C9.23858 24 7 21.7614 7 19C7 16.2386 9.23858 14 12 14C12.0914 14 12.1819 14.0024 12.2716 14.007C13.0229 11.6364 15.2078 10 17.75 10C20.9256 10 23.5 12.5744 23.5 15.75C23.5 16.0821 23.4739 16.4082 23.4239 16.7266C23.7894 17.2139 24 17.8295 24 18.5C24 18.8456 23.9341 19.1769 23.8139 19.4831C23.9362 19.4942 24 19.5 24 19.5Z" fill="white"/>
</svg> 